<?xml version="1.0" standalone="no"?>
<!DOCTYPE svg PUBLIC "-//W3C//DTD SVG 20010904//EN"
 "http://www.w3.org/TR/2001/REC-SVG-20010904/DTD/svg10.dtd">
<svg version="1.0" xmlns="http://www.w3.org/2000/svg"
 width="300.000000pt" height="138.000000pt" viewBox="0 0 300.000000 138.000000"
 preserveAspectRatio="xMidYMid meet">
<metadata>
Created by potrace 1.10, written by Peter Selinger 2001-2011
</metadata>
<g transform="translate(0.000000,138.000000) scale(0.100000,-0.100000)"
fill="#000000" stroke="none">
<path d="M1222 1347 c-53 -27 -71 -43 -72 -67 0 -3 -14 -41 -31 -85 -17 -44
-34 -93 -39 -110 -5 -16 -24 -75 -43 -130 -25 -73 -36 -95 -40 -80 -4 11 -6
22 -5 25 1 3 -4 15 -11 28 -6 12 -27 64 -45 115 -18 50 -52 144 -76 209 l-42
116 -41 -19 c-23 -10 -49 -19 -58 -19 -16 0 -23 -19 -36 -105 -2 -16 -11 -55
-18 -85 -7 -30 -16 -72 -19 -92 -3 -21 -10 -58 -16 -83 -6 -25 -13 -62 -16
-83 -3 -20 -12 -64 -20 -97 -7 -33 -16 -78 -20 -100 -3 -22 -8 -43 -10 -47 -2
-4 23 -21 57 -38 34 -17 62 -30 63 -28 3 5 34 139 52 223 9 44 23 103 30 132
8 28 14 65 14 82 0 50 14 36 44 -41 29 -77 62 -159 120 -299 20 -47 36 -91 36
-98 0 -19 18 -13 54 19 28 25 65 90 51 90 -2 0 4 20 15 45 11 25 17 45 15 45
-2 0 4 20 15 45 11 25 17 45 13 45 -3 0 0 7 7 15 7 8 10 15 7 15 -3 0 1 17 10
37 8 21 17 49 20 63 6 36 23 50 24 20 1 -37 6 -72 18 -116 5 -21 13 -59 16
-84 4 -25 13 -69 21 -99 8 -30 16 -77 20 -105 3 -28 6 -52 7 -53 1 -1 32 13
70 30 60 29 67 35 63 57 -2 14 -7 43 -11 65 -3 22 -10 56 -15 75 -5 19 -12 58
-15 85 -3 28 -10 66 -15 85 -5 19 -12 57 -15 85 -4 27 -12 76 -20 110 -7 33
-16 78 -19 100 -11 74 -19 110 -25 121 -4 8 -26 2 -69 -19z m57 -24 c5 -10 11
-38 14 -63 4 -43 50 -299 82 -460 8 -41 18 -98 21 -126 l6 -50 -41 -16 c-23
-9 -43 -13 -46 -8 -3 4 -12 43 -21 87 -9 43 -22 110 -31 148 -16 76 -21 103
-26 138 -10 63 -31 84 -55 55 -5 -7 -29 -71 -52 -143 -23 -71 -48 -144 -55
-160 -7 -17 -16 -45 -20 -63 -6 -28 -49 -73 -59 -61 -1 2 -41 98 -87 212 -83
206 -112 258 -131 239 -5 -5 -30 -103 -55 -218 -25 -115 -49 -213 -53 -217 -4
-5 -23 -2 -42 6 l-36 15 14 78 c7 44 17 102 23 129 12 54 29 142 37 190 3 17
16 83 30 149 13 65 24 120 24 122 0 6 80 27 85 22 6 -6 60 -149 115 -303 47
-131 61 -163 76 -169 20 -8 30 11 75 139 23 66 46 131 52 145 6 14 20 54 32
90 18 56 26 68 60 87 48 27 52 28 64 6z"/>
<path d="M28 1285 l-27 -65 107 0 107 0 -3 -304 -3 -304 77 -4 c51 -2 78 1 81
8 2 7 3 145 1 308 l-3 296 85 0 85 0 25 57 c14 31 27 60 28 65 2 4 -117 8
-265 8 l-268 0 -27 -65z m522 35 c0 -5 -8 -25 -17 -45 l-17 -35 -72 0 c-98 0
-106 -9 -104 -109 1 -42 2 -172 1 -289 l-1 -213 -50 2 -50 3 -1 265 c-1 146 0
276 1 289 3 43 -15 52 -111 52 -51 0 -89 4 -89 10 0 5 8 25 17 45 l17 35 238
0 c146 0 238 -4 238 -10z"/>
<path d="M1808 1337 c-35 -10 -38 -15 -97 -151 -75 -176 -137 -319 -162 -372
-89 -197 -112 -264 -91 -264 4 0 23 5 42 10 19 6 51 13 70 16 46 8 50 11 50
39 0 31 99 134 156 163 53 27 156 63 163 57 2 -3 10 -20 17 -38 6 -17 14 -39
18 -47 4 -11 -6 -22 -36 -38 -52 -28 -83 -54 -124 -107 -56 -72 -76 -145 -39
-145 26 0 28 -23 5 -42 -28 -23 -38 -23 -43 -1 -2 10 -1 -4 1 -32 3 -27 5 -57
5 -65 0 -8 4 -21 10 -27 5 -7 7 -13 3 -13 -12 0 28 -86 60 -128 18 -24 52 -58
76 -75 76 -57 106 -66 219 -65 124 1 170 19 252 101 44 43 103 129 96 139 -1
2 4 21 10 43 14 51 14 109 0 159 -6 21 -12 48 -15 59 -2 11 -14 36 -28 56 -26
39 -91 114 -81 94 4 -8 0 -13 -9 -13 -22 0 -20 -9 9 -52 30 -44 31 -50 6 -65
-12 -8 -21 -26 -23 -48 -4 -47 -19 -47 -43 1 l-20 39 -3 -73 c-3 -70 -4 -74
-35 -92 -18 -11 -40 -20 -49 -20 -22 0 -22 -1 -3 -36 18 -34 19 -50 4 -59 -23
-15 -65 16 -92 69 -16 30 -35 57 -43 60 -9 4 -34 -14 -64 -45 -59 -61 -74 -57
-85 24 -8 60 -36 95 -95 122 l-39 18 25 50 c52 102 172 191 277 205 l55 7 -24
49 c-13 28 -24 51 -24 53 0 2 26 3 58 3 228 -1 453 -142 564 -355 29 -54 78
-199 78 -227 0 -10 5 -18 10 -18 6 0 8 10 6 22 -10 47 -28 139 -31 166 -5 30
-38 112 -74 182 -13 25 -62 83 -110 130 -100 99 -185 147 -312 176 -13 3 -72
8 -131 11 -70 4 -108 10 -108 17 0 10 -23 68 -100 246 -17 41 -36 90 -41 108
-11 34 -14 35 -71 19z m117 -195 c39 -95 76 -181 82 -191 9 -15 30 -19 120
-24 120 -6 218 -32 299 -78 64 -36 188 -149 208 -190 14 -28 11 -26 -33 16
-135 131 -306 205 -478 205 -47 0 -53 -3 -58 -23 -4 -12 -1 -36 5 -51 6 -16 9
-30 8 -31 -2 -2 -22 -6 -44 -10 -41 -6 -42 -6 -53 28 -7 19 -20 42 -31 52 -18
16 -22 16 -80 -4 -127 -44 -219 -112 -261 -193 -16 -31 -59 -70 -59 -54 0 2
-16 0 -35 -4 -19 -4 -35 -4 -35 1 0 7 124 295 260 604 47 105 64 127 100 122
9 -1 41 -67 85 -175z m514 -658 c20 -67 20 -159 0 -223 -11 -34 -77 -132 -109
-159 -8 -7 -43 -27 -78 -44 -197 -95 -415 14 -480 242 -14 48 -10 76 16 100
12 12 22 25 22 30 0 18 19 11 43 -16 17 -18 26 -42 29 -76 8 -80 49 -91 105
-28 20 22 42 40 50 40 32 0 47 -93 21 -127 -13 -16 36 -123 56 -123 8 0 24
-11 35 -26 25 -32 25 -32 45 -15 10 8 15 23 13 33 -3 10 -2 16 2 14 4 -3 22 4
40 15 27 16 32 24 29 52 -3 29 -6 32 -33 30 -45 -3 -68 -8 -91 -20 -11 -7 -25
-9 -31 -5 -16 11 -33 48 -33 73 0 31 16 14 34 -36 8 -22 15 -32 15 -23 1 10
15 25 32 34 29 14 31 19 26 54 -5 37 -2 41 32 61 20 13 39 22 43 21 5 -1 7 1
7 6 -1 4 -1 24 0 46 1 32 3 36 15 27 8 -7 20 -11 28 -10 7 1 25 -1 41 -5 34
-10 57 7 57 41 0 32 -18 65 -32 57 -6 -4 -8 0 -4 12 3 11 -1 33 -9 49 -15 29
-15 29 15 -5 16 -19 38 -63 49 -96z m-77 14 c-7 -7 -12 -8 -12 -2 0 14 12 26
19 19 2 -3 -1 -11 -7 -17z m38 -18 c0 -36 -2 -40 -25 -40 -16 0 -25 6 -25 15
0 8 5 15 10 15 6 0 15 11 20 25 14 36 20 31 20 -15z m-300 -302 c30 -41 38
-68 20 -68 -5 0 -19 21 -32 48 -12 26 -24 50 -26 55 -2 4 -1 7 2 7 3 0 19 -19
36 -42z m162 -9 c-3 -30 -28 -49 -63 -49 -45 0 -66 49 -21 50 9 1 28 7 42 15
32 19 46 14 42 -16z m-77 -72 c13 -10 15 -16 6 -21 -12 -8 -41 10 -41 25 0 13
13 11 35 -4z"/>
<path d="M1776 1048 c-81 -177 -83 -215 -8 -189 20 8 65 26 100 42 l62 28 -18
48 c-28 72 -68 138 -86 141 -11 3 -26 -18 -50 -70z m134 -114 c0 -2 -6 -4 -14
-4 -8 0 -27 -5 -43 -11 -15 -6 -29 -10 -30 -10 -2 0 -24 -11 -49 -24 -26 -14
-49 -23 -51 -21 -2 2 3 16 11 32 15 29 20 41 67 157 l23 59 43 -88 c24 -48 43
-89 43 -90z"/>
<path d="M2140 750 c19 -13 30 -13 30 0 0 6 -10 10 -22 10 -19 0 -20 -2 -8
-10z"/>
<path d="M2240 724 c30 -14 63 -33 73 -42 9 -8 17 -11 17 -5 0 11 -83 58 -120
67 -14 3 0 -6 30 -20z"/>
<path d="M1550 420 c0 -23 4 -30 20 -30 16 0 20 7 20 30 0 23 -4 30 -20 30
-16 0 -20 -7 -20 -30z"/>
<path d="M830 320 c0 -113 1 -120 20 -120 19 0 20 7 20 120 0 113 -1 120 -20
120 -19 0 -20 -7 -20 -120z"/>
<path d="M1330 410 c0 -11 -4 -20 -10 -20 -5 0 -10 -9 -10 -21 0 -11 5 -17 10
-14 6 4 10 -19 10 -63 0 -76 12 -96 52 -90 30 4 38 38 9 38 -19 0 -21 6 -21
59 0 50 3 59 18 57 9 0 17 6 17 14 0 8 -8 14 -17 14 -13 -1 -18 5 -18 22 0 17
-6 24 -20 24 -13 0 -20 -7 -20 -20z"/>
<path d="M273 390 c-12 -5 -27 -18 -33 -29 -17 -32 4 -59 55 -72 52 -13 63
-25 43 -46 -16 -15 -68 -9 -68 8 0 5 -11 9 -25 9 -22 0 -24 -3 -15 -19 24 -47
132 -50 152 -5 18 38 -1 66 -57 83 -60 20 -71 41 -21 41 20 0 36 -4 36 -10 0
-5 11 -10 25 -10 22 0 24 3 15 19 -9 18 -24 25 -70 36 -8 2 -25 0 -37 -5z"/>
<path d="M573 388 c-64 -17 -85 -101 -40 -154 20 -23 32 -27 72 -27 61 0 95
33 95 92 0 68 -57 108 -127 89z m81 -60 c16 -45 -3 -82 -42 -86 -42 -4 -62 12
-62 50 0 51 16 70 58 66 30 -2 38 -8 46 -30z"/>
<path d="M2885 390 c-65 -25 -53 -83 20 -101 51 -13 62 -23 45 -44 -17 -20
-36 -19 -60 5 -23 23 -50 26 -50 6 0 -38 78 -68 120 -46 24 13 39 46 33 71 -3
10 -19 23 -36 29 -69 26 -78 30 -72 40 8 13 65 13 65 0 0 -5 9 -10 20 -10 11
0 20 7 20 15 0 26 -70 49 -105 35z"/>
<path d="M1030 310 c0 -68 3 -81 19 -90 25 -13 78 -13 86 0 3 6 11 10 16 10 6
0 7 -5 4 -10 -3 -5 3 -10 14 -10 20 0 21 6 21 90 0 83 -1 90 -20 90 -18 0 -20
-7 -20 -58 0 -47 -4 -63 -21 -78 -35 -31 -53 -9 -57 70 -3 58 -5 66 -22 66
-18 0 -20 -7 -20 -80z"/>
<path d="M2530 296 c0 -89 1 -96 20 -96 18 0 20 7 20 69 0 75 12 95 52 89 21
-3 23 -8 26 -80 3 -70 5 -78 22 -78 18 0 20 7 20 71 0 39 -5 79 -10 89 -15 29
-76 37 -101 14 -15 -13 -20 -14 -17 -4 2 7 -5 16 -14 18 -16 3 -18 -6 -18 -92z"/>
<path d="M1550 290 c0 -83 1 -90 20 -90 19 0 20 7 20 90 0 83 -1 90 -20 90
-19 0 -20 -7 -20 -90z"/>
<path d="M2770 231 c0 -6 5 -13 10 -16 6 -3 10 1 10 9 0 9 -4 16 -10 16 -5 0
-10 -4 -10 -9z"/>
</g>
</svg>
